# 3ds Max Wavefront OBJ Exporter v0.97b - (c)2007 guruware
# File Created: 27.01.2017 15:41:17

mtllib klucz.mtl

#
# object Box002
#

v  0.0539 0.0119 -0.0050
v  0.0559 0.0119 0.0001
v  0.0521 0.0119 0.0382
v  0.0500 0.0119 -0.0079
v  0.0500 0.0119 0.0018
v  0.0504 0.0119 0.0103
v  0.0553 0.0119 0.0054
v  0.0495 0.0119 0.0405
v  0.0521 0.0119 0.0323
v  0.0489 0.0119 0.0375
v  0.0498 0.0119 0.0354
v  0.0489 0.0119 0.0333
v  0.0468 0.0119 0.0018
v  0.0468 0.0119 0.0383
v  0.0468 0.0119 0.0324
v  0.0377 0.0119 0.0001
v  0.0397 0.0119 -0.0050
v  0.0436 0.0119 -0.0079
v  0.0436 0.0119 0.0018
v  0.0383 0.0119 0.0054
v  0.0432 0.0119 0.0103
v  0.0415 0.0119 0.0323
v  0.0468 0.0119 0.0107
v  0.0447 0.0119 0.0333
v  0.0415 0.0119 0.0382
v  0.0438 0.0119 0.0354
v  0.0441 0.0119 0.0405
v  0.0447 0.0119 0.0375
v  0.0468 0.0119 0.0412
v  0.0539 0.0069 -0.0050
v  0.0559 0.0069 0.0001
v  0.0521 0.0069 0.0382
v  0.0500 0.0069 -0.0079
v  0.0500 0.0069 0.0018
v  0.0504 0.0069 0.0103
v  0.0553 0.0069 0.0054
v  0.0495 0.0069 0.0405
v  0.0521 0.0069 0.0323
v  0.0489 0.0069 0.0375
v  0.0498 0.0069 0.0354
v  0.0489 0.0069 0.0333
v  0.0468 0.0069 0.0018
v  0.0468 0.0069 0.0383
v  0.0468 0.0069 0.0324
v  0.0377 0.0069 0.0001
v  0.0397 0.0069 -0.0050
v  0.0436 0.0069 -0.0079
v  0.0436 0.0069 0.0018
v  0.0383 0.0069 0.0054
v  0.0432 0.0069 0.0103
v  0.0415 0.0069 0.0323
v  0.0468 0.0069 0.0107
v  0.0447 0.0069 0.0333
v  0.0415 0.0069 0.0382
v  0.0438 0.0069 0.0354
v  0.0441 0.0069 0.0405
v  0.0447 0.0069 0.0375
v  0.0468 0.0069 0.0412
# 58 vertices

vn 0.0000 1.0000 -0.0000
vn 0.0000 1.0000 -0.0000
vn 0.0000 1.0000 -0.0000
vn 0.0000 1.0000 -0.0000
vn 0.0000 1.0000 -0.0000
vn 0.0000 1.0000 -0.0000
vn 0.0000 1.0000 -0.0000
vn 0.0000 1.0000 -0.0000
vn 0.0000 1.0000 -0.0000
vn 0.0000 1.0000 -0.0000
vn 0.0000 1.0000 -0.0000
vn 0.0000 1.0000 -0.0000
vn 0.0000 1.0000 -0.0000
vn 0.0000 1.0000 -0.0000
vn 0.0000 1.0000 -0.0000
vn 0.0000 1.0000 -0.0000
vn 0.0000 1.0000 -0.0000
vn 0.0000 1.0000 -0.0000
vn 0.0000 1.0000 -0.0000
vn 0.0000 1.0000 -0.0000
vn 0.0000 1.0000 -0.0000
vn 0.0000 1.0000 -0.0000
vn 0.0000 1.0000 -0.0000
vn 0.0000 1.0000 -0.0000
vn 0.0000 1.0000 -0.0000
vn 0.0000 1.0000 -0.0000
vn 0.0000 1.0000 -0.0000
vn 0.0000 1.0000 -0.0000
vn 0.0000 1.0000 -0.0000
vn 0.0000 1.0000 -0.0000
vn 0.0000 1.0000 -0.0000
vn 0.0000 1.0000 -0.0000
vn 0.0000 1.0000 -0.0000
vn 0.0000 1.0000 -0.0000
vn 0.0000 1.0000 -0.0000
vn 0.0000 1.0000 -0.0000
vn 0.0000 1.0000 -0.0000
vn 0.0000 1.0000 -0.0000
vn 0.0000 1.0000 -0.0000
vn 0.0000 1.0000 -0.0000
vn 0.0000 1.0000 -0.0000
vn 0.0000 1.0000 -0.0000
vn 0.0000 1.0000 -0.0000
vn 0.0000 1.0000 -0.0000
vn 0.0000 1.0000 -0.0000
vn 0.0000 1.0000 -0.0000
vn 0.0000 1.0000 -0.0000
vn 0.0000 1.0000 -0.0000
vn 0.0000 1.0000 -0.0000
vn 0.0000 1.0000 -0.0000
vn 0.0000 1.0000 -0.0000
vn 0.0000 1.0000 -0.0000
vn 0.0000 1.0000 -0.0000
vn 0.0000 1.0000 -0.0000
vn 0.0000 1.0000 -0.0000
vn 0.0000 1.0000 -0.0000
vn 0.0000 1.0000 -0.0000
vn 0.0000 1.0000 -0.0000
vn 0.0000 1.0000 -0.0000
vn 0.0000 1.0000 -0.0000
vn 0.0000 1.0000 -0.0000
vn 0.0000 1.0000 -0.0000
vn 0.0000 -1.0000 -0.0000
vn 0.0000 -1.0000 -0.0000
vn 0.0000 -1.0000 -0.0000
vn 0.0000 -1.0000 -0.0000
vn 0.0000 -1.0000 -0.0000
vn 0.0000 -1.0000 -0.0000
vn 0.0000 -1.0000 -0.0000
vn 0.0000 -1.0000 -0.0000
vn 0.0000 -1.0000 -0.0000
vn 0.0000 -1.0000 -0.0000
vn 0.0000 -1.0000 -0.0000
vn 0.0000 -1.0000 -0.0000
vn 0.0000 -1.0000 -0.0000
vn 0.0000 -1.0000 -0.0000
vn 0.0000 -1.0000 -0.0000
vn 0.0000 -1.0000 -0.0000
vn 0.0000 -1.0000 -0.0000
vn 0.0000 -1.0000 -0.0000
vn 0.0000 -1.0000 -0.0000
vn 0.0000 -1.0000 -0.0000
vn 0.0000 -1.0000 -0.0000
vn 0.0000 -1.0000 -0.0000
vn 0.0000 -1.0000 -0.0000
vn 0.0000 -1.0000 -0.0000
vn 0.0000 -1.0000 -0.0000
vn 0.0000 -1.0000 -0.0000
vn 0.0000 -1.0000 -0.0000
vn 0.0000 -1.0000 -0.0000
vn 0.0000 -1.0000 -0.0000
vn 0.0000 -1.0000 -0.0000
vn 0.0000 -1.0000 -0.0000
vn 0.0000 -1.0000 -0.0000
vn 0.0000 -1.0000 -0.0000
vn 0.0000 -1.0000 -0.0000
vn 0.0000 -1.0000 -0.0000
vn 0.0000 -1.0000 -0.0000
vn 0.0000 -1.0000 -0.0000
vn 0.0000 -1.0000 -0.0000
vn 0.0000 -1.0000 -0.0000
vn 0.0000 -1.0000 -0.0000
vn 0.0000 -1.0000 -0.0000
vn 0.0000 -1.0000 -0.0000
vn 0.0000 -1.0000 -0.0000
vn 0.0000 -1.0000 -0.0000
vn 0.0000 -1.0000 -0.0000
vn 0.0000 -1.0000 -0.0000
vn 0.0000 -1.0000 -0.0000
vn 0.0000 -1.0000 -0.0000
vn 0.0000 -1.0000 -0.0000
vn 0.0000 -1.0000 -0.0000
vn 0.0000 -1.0000 -0.0000
vn 0.0000 -1.0000 -0.0000
vn 0.0000 -1.0000 -0.0000
vn 0.0000 -1.0000 -0.0000
vn 0.0000 -1.0000 -0.0000
vn 0.0000 -1.0000 -0.0000
vn 0.0000 -1.0000 -0.0000
vn 0.0000 -1.0000 -0.0000
vn 0.0000 -1.0000 -0.0000
vn 0.0000 -1.0000 -0.0000
vn 0.0000 -1.0000 -0.0000
vn 0.0000 -1.0000 -0.0000
vn 0.5943 0.0000 -0.8043
vn 0.7936 0.0000 -0.6084
vn 0.7936 0.0000 -0.6084
vn 0.5943 0.0000 -0.8043
vn -1.0000 0.0000 0.0000
vn -1.0000 0.0000 0.0000
vn -1.0000 0.0000 0.0000
vn -1.0000 0.0000 0.0000
vn 0.7936 0.0000 -0.6084
vn 0.9920 0.0000 -0.1265
vn 0.9920 0.0000 -0.1265
vn 0.7936 0.0000 -0.6084
vn 0.9920 0.0000 -0.1265
vn 0.8998 0.0000 0.4363
vn 0.8998 0.0000 0.4363
vn 0.9920 0.0000 -0.1265
vn 0.8998 0.0000 0.4363
vn 0.7088 0.0000 0.7054
vn 0.7088 0.0000 0.7054
vn 0.8998 0.0000 0.4363
vn -0.7071 0.0000 0.7071
vn -0.3827 0.0000 0.9239
vn -0.3827 0.0000 0.9239
vn -0.7071 0.0000 0.7071
vn 0.9970 0.0000 -0.0780
vn 0.9991 0.0000 -0.0415
vn 0.9991 0.0000 -0.0415
vn 0.9970 0.0000 -0.0780
vn -0.9239 0.0000 0.3827
vn -0.7071 0.0000 0.7071
vn -0.7071 0.0000 0.7071
vn -0.9239 0.0000 0.3827
vn 0.9991 0.0000 -0.0415
vn 1.0000 0.0000 -0.0050
vn 1.0000 0.0000 -0.0050
vn 0.9991 0.0000 -0.0415
vn -0.7071 0.0000 -0.7071
vn -0.9239 0.0000 -0.3827
vn -0.9239 0.0000 -0.3827
vn -0.7071 0.0000 -0.7071
vn 0.6610 0.0000 0.7504
vn 0.4742 0.0000 0.8804
vn 0.4742 0.0000 0.8804
vn 0.6610 0.0000 0.7504
vn 0.0000 0.0000 -1.0000
vn 0.0063 0.0000 -1.0000
vn 0.0063 0.0000 -1.0000
vn 0.0000 0.0000 -1.0000
vn 0.4742 0.0000 0.8804
vn 0.0000 0.0000 1.0000
vn -0.0000 0.0000 1.0000
vn 0.4742 0.0000 0.8804
vn -0.3827 0.0000 -0.9239
vn -0.7071 0.0000 -0.7071
vn -0.7071 0.0000 -0.7071
vn -0.3827 0.0000 -0.9239
vn -0.9920 0.0000 -0.1265
vn -0.7936 0.0000 -0.6084
vn -0.7936 0.0000 -0.6084
vn -0.9920 0.0000 -0.1265
vn 1.0000 0.0000 0.0000
vn 1.0000 0.0000 0.0000
vn 1.0000 0.0000 0.0000
vn 1.0000 0.0000 0.0000
vn -0.7936 0.0000 -0.6084
vn -0.5943 0.0000 -0.8043
vn -0.5943 0.0000 -0.8043
vn -0.7936 0.0000 -0.6084
vn -0.7088 0.0000 0.7054
vn -0.8998 0.0000 0.4363
vn -0.8998 0.0000 0.4363
vn -0.7088 0.0000 0.7054
vn -0.8998 0.0000 0.4363
vn -0.9920 0.0000 -0.1265
vn -0.9920 0.0000 -0.1265
vn -0.8998 0.0000 0.4363
vn 0.3827 0.0000 0.9239
vn 0.7071 0.0000 0.7071
vn 0.7071 0.0000 0.7071
vn 0.3827 0.0000 0.9239
vn -0.9991 0.0000 -0.0415
vn -0.9970 0.0000 -0.0780
vn -0.9970 0.0000 -0.0780
vn -0.9991 0.0000 -0.0415
vn -1.0000 0.0000 -0.0050
vn -0.9991 0.0000 -0.0415
vn -0.9991 0.0000 -0.0415
vn -1.0000 0.0000 -0.0050
vn 0.7071 0.0000 0.7071
vn 0.9239 0.0000 0.3827
vn 0.9239 0.0000 0.3827
vn 0.7071 0.0000 0.7071
vn -0.4742 0.0000 0.8804
vn -0.6610 0.0000 0.7504
vn -0.6610 0.0000 0.7504
vn -0.4742 0.0000 0.8804
vn 0.9239 0.0000 -0.3827
vn 0.7071 0.0000 -0.7071
vn 0.7071 0.0000 -0.7071
vn 0.9239 0.0000 -0.3827
vn -0.0063 0.0000 -1.0000
vn 0.0000 0.0000 -1.0000
vn 0.0000 0.0000 -1.0000
vn -0.0063 0.0000 -1.0000
vn 0.7071 0.0000 -0.7071
vn 0.3827 0.0000 -0.9239
vn 0.3827 0.0000 -0.9239
vn 0.7071 0.0000 -0.7071
vn 0.0000 0.0000 1.0000
vn -0.4742 0.0000 0.8804
vn -0.4742 0.0000 0.8804
vn -0.0000 0.0000 1.0000
# 236 vertex normals

vt 1.0000 1.0000 0.0000
vt 1.0000 0.7467 0.0000
vt 0.5000 0.0000 0.0000
vt 0.5000 1.0000 0.0000
vt 0.5000 0.7471 0.0000
vt 0.5000 0.5977 0.0000
vt 1.0000 0.6682 0.0000
vt 0.2736 0.0000 0.0000
vt 0.5000 0.1268 0.0000
vt 0.1552 0.0755 0.0000
vt 0.2625 0.0828 0.0000
vt 0.2475 0.1508 0.0000
vt 0.0234 0.0000 0.0000
vt 0.0369 0.7474 0.0000
vt 0.0234 0.0751 0.0000
vt 0.0229 0.2217 0.0000
vt 0.0331 0.5975 0.0000
vt 1.0000 0.7467 0.0000
vt 1.0000 1.0000 0.0000
vt 0.5000 1.0000 0.0000
vt 0.5000 0.7471 0.0000
vt 1.0000 0.6682 0.0000
vt 0.5000 0.5977 0.0000
vt 0.5000 0.1268 0.0000
vt 0.0331 0.5975 0.0000
vt 0.0229 0.2217 0.0000
vt 0.2475 0.1508 0.0000
vt 0.5000 0.0000 0.0000
vt 0.2625 0.0828 0.0000
vt 0.2736 0.0000 0.0000
vt 0.1552 0.0755 0.0000
vt 0.0369 0.7474 0.0000
vt 0.0234 0.0000 0.0000
vt 0.0234 0.0751 0.0000
# 34 texture coords

g Box002
usemtl wire_088199225
s 4
f -58/-34/-236 -55/-31/-235 -54/-30/-234 -57/-33/-233 
f -52/-28/-232 -57/-33/-231 -54/-30/-230 -53/-29/-229 
f -53/-29/-228 -36/-18/-227 -44/-19/-226 -47/-23/-225 
f -50/-26/-224 -53/-29/-223 -47/-23/-222 
f -50/-26/-221 -47/-23/-220 -48/-24/-219 -56/-32/-218 
f -56/-32/-217 -48/-24/-216 -49/-25/-215 -51/-27/-214 
f -53/-29/-213 -54/-30/-212 -46/-21/-211 -36/-18/-210 
f -30/-22/-209 -51/-27/-208 -49/-25/-207 -45/-20/-206 
f -42/-16/-205 -43/-17/-204 -40/-14/-203 -41/-15/-202 
f -39/-13/-201 -38/-12/-200 -40/-14/-199 -43/-17/-198 
f -44/-9/-197 -36/-10/-196 -38/-12/-195 -35/-8/-194 
f -37/-11/-193 -35/-8/-192 -38/-12/-191 
f -37/-11/-190 -34/-7/-189 -33/-6/-188 -35/-8/-187 
f -34/-7/-186 -32/-5/-185 -31/-4/-184 -33/-6/-183 
f -38/-12/-182 -36/-10/-181 -46/-3/-180 -40/-14/-179 
f -30/-2/-178 -45/-1/-177 -31/-4/-176 -32/-5/-175 
f -25/-30/-174 -26/-31/-173 -29/-34/-172 -28/-33/-171 
f -25/-30/-170 -28/-33/-169 -23/-28/-168 -24/-29/-167 
f -15/-19/-166 -7/-18/-165 -24/-29/-164 -18/-23/-163 
f -18/-23/-162 -24/-29/-161 -21/-26/-160 
f -19/-24/-159 -18/-23/-158 -21/-26/-157 -27/-32/-156 
f -20/-25/-155 -19/-24/-154 -27/-32/-153 -22/-27/-152 
f -17/-21/-151 -25/-30/-150 -24/-29/-149 -7/-18/-148 
f -20/-25/-147 -22/-27/-146 -1/-22/-145 -16/-20/-144 
f -11/-14/-143 -14/-17/-142 -13/-16/-141 -12/-15/-140 
f -11/-14/-139 -9/-12/-138 -10/-13/-137 -14/-17/-136 
f -9/-12/-135 -7/-10/-134 -15/-9/-133 -6/-8/-132 
f -9/-12/-131 -6/-8/-130 -8/-11/-129 
f -4/-6/-128 -5/-7/-127 -8/-11/-126 -6/-8/-125 
f -2/-4/-124 -3/-5/-123 -5/-7/-122 -4/-6/-121 
f -17/-3/-120 -7/-10/-119 -9/-12/-118 -11/-14/-117 
f -2/-4/-116 -16/-1/-115 -1/-2/-114 -3/-5/-113 
s 1
f -55/-31/-112 -58/-34/-111 -29/-34/-110 -26/-31/-109 
s 2
f -54/-30/-108 -55/-31/-107 -26/-31/-106 -25/-30/-105 
s 1
f -58/-34/-104 -57/-33/-103 -28/-33/-102 -29/-34/-101 
f -57/-33/-100 -52/-28/-99 -23/-28/-98 -28/-33/-97 
f -52/-28/-96 -53/-29/-95 -24/-29/-94 -23/-28/-93 
f -47/-23/-92 -44/-19/-91 -15/-19/-90 -18/-23/-89 
s 2
f -53/-29/-88 -50/-26/-87 -21/-26/-86 -24/-29/-85 
s 1
f -48/-24/-84 -47/-23/-83 -18/-23/-82 -19/-24/-81 
s 2
f -50/-26/-80 -56/-32/-79 -27/-32/-78 -21/-26/-77 
f -49/-25/-76 -48/-24/-75 -19/-24/-74 -20/-25/-73 
s 1
f -56/-32/-72 -51/-27/-71 -22/-27/-70 -27/-32/-69 
f -46/-21/-68 -54/-30/-67 -25/-30/-66 -17/-21/-65 
f -51/-27/-64 -30/-22/-63 -1/-22/-62 -22/-27/-61 
s 2
f -45/-20/-60 -49/-25/-59 -20/-25/-58 -16/-20/-57 
s 1
f -43/-17/-56 -42/-16/-55 -13/-16/-54 -14/-17/-53 
s 2
f -41/-15/-52 -40/-14/-51 -11/-14/-50 -12/-15/-49 
s 1
f -42/-16/-48 -41/-15/-47 -12/-15/-46 -13/-16/-45 
f -38/-12/-44 -39/-13/-43 -10/-13/-42 -9/-12/-41 
f -39/-13/-40 -43/-17/-39 -14/-17/-38 -10/-13/-37 
s 2
f -44/-9/-36 -35/-8/-35 -6/-8/-34 -15/-9/-33 
f -37/-11/-32 -38/-12/-31 -9/-12/-30 -8/-11/-29 
f -34/-7/-28 -37/-11/-27 -8/-11/-26 -5/-7/-25 
f -35/-8/-24 -33/-6/-23 -4/-6/-22 -6/-8/-21 
s 1
f -32/-5/-20 -34/-7/-19 -5/-7/-18 -3/-5/-17 
f -33/-6/-16 -31/-4/-15 -2/-4/-14 -4/-6/-13 
f -40/-14/-12 -46/-3/-11 -17/-3/-10 -11/-14/-9 
f -31/-4/-8 -45/-1/-7 -16/-1/-6 -2/-4/-5 
f -30/-2/-4 -32/-5/-3 -3/-5/-2 -1/-2/-1 
# 56 polygons - 4 triangles

