# 3ds Max Wavefront OBJ Exporter v0.97b - (c)2007 guruware
# File Created: 27.01.2017 15:48:16

mtllib kolo.mtl

#
# object kolo
#

v  0.0163 0.0024 0.0006
v  0.0155 0.0024 -0.0044
v  0.0132 0.0024 -0.0090
v  0.0096 0.0024 -0.0126
v  0.0050 0.0024 -0.0149
v  -0.0000 0.0024 -0.0157
v  -0.0050 0.0024 -0.0149
v  -0.0096 0.0024 -0.0126
v  -0.0132 0.0024 -0.0090
v  -0.0155 0.0024 -0.0044
v  -0.0163 0.0024 0.0006
v  -0.0155 0.0024 0.0056
v  -0.0132 0.0024 0.0102
v  -0.0096 0.0024 0.0138
v  -0.0050 0.0024 0.0161
v  0.0050 0.0024 0.0161
v  0.0096 0.0024 0.0138
v  0.0132 0.0024 0.0102
v  0.0155 0.0024 0.0056
v  0.0189 0.0024 -0.0047
v  0.0196 0.0024 -0.0002
v  0.0122 0.0024 -0.0148
v  0.0154 0.0024 -0.0116
v  0.0008 0.0024 -0.0190
v  0.0053 0.0024 -0.0183
v  -0.0109 0.0024 -0.0157
v  -0.0068 0.0024 -0.0178
v  -0.0184 0.0024 -0.0062
v  -0.0163 0.0024 -0.0103
v  -0.0189 0.0024 0.0059
v  -0.0196 0.0024 0.0014
v  -0.0122 0.0024 0.0160
v  -0.0154 0.0024 0.0128
v  0.0109 0.0024 0.0169
v  0.0068 0.0024 0.0190
v  0.0184 0.0024 0.0074
v  0.0163 0.0024 0.0115
v  0.0093 0.0024 0.0006
v  0.0088 0.0024 -0.0023
v  0.0075 0.0024 -0.0049
v  0.0055 0.0024 -0.0069
v  0.0029 0.0024 -0.0082
v  -0.0000 0.0024 -0.0087
v  -0.0029 0.0024 -0.0082
v  -0.0055 0.0024 -0.0069
v  -0.0075 0.0024 -0.0049
v  -0.0088 0.0024 -0.0023
v  -0.0093 0.0024 0.0006
v  -0.0088 0.0024 0.0035
v  -0.0075 0.0024 0.0061
v  -0.0055 0.0024 0.0081
v  -0.0029 0.0024 0.0094
v  0.0029 0.0024 0.0094
v  0.0055 0.0024 0.0081
v  0.0075 0.0024 0.0061
v  0.0088 0.0024 0.0035
v  0.0163 -0.0024 0.0006
v  0.0155 -0.0024 -0.0044
v  0.0132 -0.0024 -0.0090
v  0.0096 -0.0024 -0.0126
v  0.0050 -0.0024 -0.0149
v  -0.0000 -0.0024 -0.0157
v  -0.0050 -0.0024 -0.0149
v  -0.0096 -0.0024 -0.0126
v  -0.0132 -0.0024 -0.0090
v  -0.0155 -0.0024 -0.0044
v  -0.0163 -0.0024 0.0006
v  -0.0155 -0.0024 0.0056
v  -0.0132 -0.0024 0.0102
v  -0.0096 -0.0024 0.0138
v  -0.0050 -0.0024 0.0161
v  0.0050 -0.0024 0.0161
v  0.0096 -0.0024 0.0138
v  0.0132 -0.0024 0.0102
v  0.0155 -0.0024 0.0056
v  0.0189 -0.0024 -0.0047
v  0.0196 -0.0024 -0.0002
v  0.0122 -0.0024 -0.0148
v  0.0154 -0.0024 -0.0116
v  0.0008 -0.0024 -0.0190
v  0.0053 -0.0024 -0.0183
v  -0.0109 -0.0024 -0.0157
v  -0.0068 -0.0024 -0.0178
v  -0.0184 -0.0024 -0.0062
v  -0.0163 -0.0024 -0.0103
v  -0.0189 -0.0024 0.0059
v  -0.0196 -0.0024 0.0014
v  -0.0122 -0.0024 0.0160
v  -0.0154 -0.0024 0.0128
v  0.0109 -0.0024 0.0169
v  0.0068 -0.0024 0.0190
v  0.0184 -0.0024 0.0074
v  0.0163 -0.0024 0.0115
v  0.0093 -0.0024 0.0006
v  0.0088 -0.0024 -0.0023
v  0.0075 -0.0024 -0.0049
v  0.0055 -0.0024 -0.0069
v  0.0029 -0.0024 -0.0082
v  -0.0000 -0.0024 -0.0087
v  -0.0029 -0.0024 -0.0082
v  -0.0055 -0.0024 -0.0069
v  -0.0075 -0.0024 -0.0049
v  -0.0088 -0.0024 -0.0023
v  -0.0093 -0.0024 0.0006
v  -0.0088 -0.0024 0.0035
v  -0.0075 -0.0024 0.0061
v  -0.0055 -0.0024 0.0081
v  -0.0029 -0.0024 0.0094
v  0.0029 -0.0024 0.0094
v  0.0055 -0.0024 0.0081
v  0.0075 -0.0024 0.0061
v  0.0088 -0.0024 0.0035
# 112 vertices

vn 0.0000 1.0000 -0.0000
vn 0.0000 1.0000 -0.0000
vn 0.0000 1.0000 -0.0000
vn 0.0000 1.0000 -0.0000
vn 0.0000 1.0000 -0.0000
vn 0.0000 1.0000 -0.0000
vn 0.0000 1.0000 -0.0000
vn 0.0000 1.0000 -0.0000
vn 0.0000 1.0000 -0.0000
vn 0.0000 1.0000 -0.0000
vn 0.0000 1.0000 -0.0000
vn 0.0000 1.0000 -0.0000
vn 0.0000 1.0000 -0.0000
vn 0.0000 1.0000 -0.0000
vn 0.0000 1.0000 -0.0000
vn 0.0000 1.0000 -0.0000
vn 0.0000 1.0000 -0.0000
vn 0.0000 1.0000 -0.0000
vn 0.0000 1.0000 -0.0000
vn 0.0000 1.0000 -0.0000
vn 0.0000 1.0000 -0.0000
vn 0.0000 1.0000 -0.0000
vn 0.0000 1.0000 -0.0000
vn 0.0000 1.0000 -0.0000
vn 0.0000 1.0000 -0.0000
vn 0.0000 1.0000 -0.0000
vn 0.0000 1.0000 -0.0000
vn 0.0000 1.0000 -0.0000
vn 0.0000 1.0000 -0.0000
vn 0.0000 1.0000 -0.0000
vn 0.0000 1.0000 -0.0000
vn 0.0000 1.0000 -0.0000
vn 0.0000 1.0000 -0.0000
vn 0.0000 1.0000 -0.0000
vn 0.0000 1.0000 -0.0000
vn 0.0000 1.0000 -0.0000
vn 0.0000 1.0000 -0.0000
vn 0.0000 1.0000 -0.0000
vn 0.0000 1.0000 -0.0000
vn 0.0000 1.0000 -0.0000
vn 0.0000 1.0000 -0.0000
vn 0.0000 1.0000 -0.0000
vn 0.0000 1.0000 -0.0000
vn 0.0000 1.0000 -0.0000
vn 0.0000 1.0000 -0.0000
vn 0.0000 1.0000 -0.0000
vn 0.0000 1.0000 -0.0000
vn 0.0000 1.0000 -0.0000
vn 0.0000 1.0000 -0.0000
vn 0.0000 1.0000 -0.0000
vn 0.0000 1.0000 -0.0000
vn 0.0000 1.0000 -0.0000
vn 0.0000 1.0000 -0.0000
vn 0.0000 1.0000 -0.0000
vn 0.0000 1.0000 -0.0000
vn 0.0000 1.0000 -0.0000
vn 0.0000 1.0000 -0.0000
vn 0.0000 1.0000 -0.0000
vn 0.0000 1.0000 -0.0000
vn 0.0000 1.0000 -0.0000
vn 0.0000 1.0000 -0.0000
vn 0.0000 1.0000 -0.0000
vn 0.0000 1.0000 -0.0000
vn 0.0000 1.0000 -0.0000
vn 0.0000 1.0000 -0.0000
vn 0.0000 1.0000 -0.0000
vn 0.0000 1.0000 -0.0000
vn 0.0000 1.0000 -0.0000
vn 0.0000 1.0000 -0.0000
vn 0.0000 1.0000 -0.0000
vn 0.0000 1.0000 -0.0000
vn 0.0000 1.0000 -0.0000
vn 0.0000 1.0000 -0.0000
vn 0.0000 1.0000 -0.0000
vn 0.0000 1.0000 -0.0000
vn 0.0000 1.0000 -0.0000
vn 0.0000 1.0000 -0.0000
vn 0.0000 1.0000 -0.0000
vn 0.0000 1.0000 -0.0000
vn 0.0000 1.0000 -0.0000
vn 0.0000 1.0000 -0.0000
vn 0.0000 1.0000 -0.0000
vn 0.0000 1.0000 -0.0000
vn 0.0000 1.0000 -0.0000
vn 0.0000 1.0000 -0.0000
vn 0.0000 1.0000 -0.0000
vn 0.0000 1.0000 -0.0000
vn 0.0000 1.0000 -0.0000
vn 0.0000 1.0000 -0.0000
vn 0.0000 1.0000 -0.0000
vn 0.0000 1.0000 -0.0000
vn 0.0000 1.0000 -0.0000
vn 0.0000 1.0000 -0.0000
vn 0.0000 1.0000 -0.0000
vn 0.0000 1.0000 -0.0000
vn 0.0000 1.0000 -0.0000
vn 0.0000 1.0000 -0.0000
vn 0.0000 1.0000 -0.0000
vn 0.0000 1.0000 -0.0000
vn 0.0000 1.0000 -0.0000
vn 0.0000 1.0000 -0.0000
vn 0.0000 1.0000 -0.0000
vn 0.0000 1.0000 -0.0000
vn 0.0000 1.0000 -0.0000
vn 0.0000 1.0000 -0.0000
vn 0.0000 1.0000 -0.0000
vn 0.0000 1.0000 -0.0000
vn 0.0000 1.0000 -0.0000
vn 0.0000 -1.0000 -0.0000
vn 0.0000 -1.0000 -0.0000
vn 0.0000 -1.0000 -0.0000
vn 0.0000 -1.0000 -0.0000
vn 0.0000 -1.0000 -0.0000
vn 0.0000 -1.0000 -0.0000
vn 0.0000 -1.0000 -0.0000
vn 0.0000 -1.0000 -0.0000
vn 0.0000 -1.0000 -0.0000
vn 0.0000 -1.0000 -0.0000
vn 0.0000 -1.0000 -0.0000
vn 0.0000 -1.0000 -0.0000
vn 0.0000 -1.0000 -0.0000
vn 0.0000 -1.0000 -0.0000
vn 0.0000 -1.0000 -0.0000
vn 0.0000 -1.0000 -0.0000
vn 0.0000 -1.0000 -0.0000
vn 0.0000 -1.0000 -0.0000
vn 0.0000 -1.0000 -0.0000
vn 0.0000 -1.0000 -0.0000
vn 0.0000 -1.0000 -0.0000
vn 0.0000 -1.0000 -0.0000
vn 0.0000 -1.0000 -0.0000
vn 0.0000 -1.0000 -0.0000
vn 0.0000 -1.0000 -0.0000
vn 0.0000 -1.0000 -0.0000
vn 0.0000 -1.0000 -0.0000
vn 0.0000 -1.0000 -0.0000
vn 0.0000 -1.0000 -0.0000
vn 0.0000 -1.0000 -0.0000
vn 0.0000 -1.0000 -0.0000
vn 0.0000 -1.0000 -0.0000
vn 0.0000 -1.0000 -0.0000
vn 0.0000 -1.0000 -0.0000
vn 0.0000 -1.0000 -0.0000
vn 0.0000 -1.0000 -0.0000
vn 0.0000 -1.0000 -0.0000
vn 0.0000 -1.0000 -0.0000
vn 0.0000 -1.0000 -0.0000
vn 0.0000 -1.0000 -0.0000
vn 0.0000 -1.0000 -0.0000
vn 0.0000 -1.0000 -0.0000
vn 0.0000 -1.0000 -0.0000
vn 0.0000 -1.0000 -0.0000
vn 0.0000 -1.0000 -0.0000
vn 0.0000 -1.0000 -0.0000
vn 0.0000 -1.0000 -0.0000
vn 0.0000 -1.0000 -0.0000
vn 0.0000 -1.0000 -0.0000
vn 0.0000 -1.0000 -0.0000
vn 0.0000 -1.0000 -0.0000
vn 0.0000 -1.0000 -0.0000
vn 0.0000 -1.0000 -0.0000
vn 0.0000 -1.0000 -0.0000
vn 0.0000 -1.0000 -0.0000
vn 0.0000 -1.0000 -0.0000
vn 0.0000 -1.0000 -0.0000
vn 0.0000 -1.0000 -0.0000
vn 0.0000 -1.0000 -0.0000
vn 0.0000 -1.0000 -0.0000
vn 0.0000 -1.0000 -0.0000
vn 0.0000 -1.0000 -0.0000
vn 0.0000 -1.0000 -0.0000
vn 0.0000 -1.0000 -0.0000
vn 0.0000 -1.0000 -0.0000
vn 0.0000 -1.0000 -0.0000
vn 0.0000 -1.0000 -0.0000
vn 0.0000 -1.0000 -0.0000
vn 0.0000 -1.0000 -0.0000
vn 0.0000 -1.0000 -0.0000
vn 0.0000 -1.0000 -0.0000
vn 0.0000 -1.0000 -0.0000
vn 0.0000 -1.0000 -0.0000
vn 0.0000 -1.0000 -0.0000
vn 0.0000 -1.0000 -0.0000
vn 0.0000 -1.0000 -0.0000
vn 0.0000 -1.0000 -0.0000
vn 0.0000 -1.0000 -0.0000
vn 0.0000 -1.0000 -0.0000
vn 0.0000 -1.0000 -0.0000
vn 0.0000 -1.0000 -0.0000
vn 0.0000 -1.0000 -0.0000
vn 0.0000 -1.0000 -0.0000
vn 0.0000 -1.0000 -0.0000
vn 0.0000 -1.0000 -0.0000
vn 0.0000 -1.0000 -0.0000
vn 0.0000 -1.0000 -0.0000
vn 0.0000 -1.0000 -0.0000
vn 0.0000 -1.0000 -0.0000
vn 0.0000 -1.0000 -0.0000
vn 0.0000 -1.0000 -0.0000
vn 0.0000 -1.0000 -0.0000
vn 0.0000 -1.0000 -0.0000
vn 0.0000 -1.0000 -0.0000
vn 0.0000 -1.0000 -0.0000
vn 0.0000 -1.0000 -0.0000
vn 0.0000 -1.0000 -0.0000
vn 0.0000 -1.0000 -0.0000
vn 0.0000 -1.0000 -0.0000
vn 0.0000 -1.0000 -0.0000
vn 0.0000 -1.0000 -0.0000
vn 0.0000 -1.0000 -0.0000
vn 0.0000 -1.0000 -0.0000
vn 0.0000 -1.0000 -0.0000
vn 0.0000 -1.0000 -0.0000
vn 0.0000 -1.0000 -0.0000
vn 0.0000 -1.0000 -0.0000
vn 0.0000 -1.0000 -0.0000
vn 0.2244 0.0000 0.9745
vn 0.2244 0.0000 0.9745
vn 0.2244 0.0000 0.9745
vn 0.2244 0.0000 0.9745
vn 0.9877 0.0000 -0.1564
vn 0.9877 0.0000 -0.1564
vn 0.9877 0.0000 -0.1564
vn 0.9877 0.0000 -0.1564
vn -0.0878 0.0000 -0.9961
vn -0.0878 0.0000 -0.9961
vn -0.0878 0.0000 -0.9961
vn -0.0878 0.0000 -0.9961
vn 0.7543 0.0000 0.6565
vn 0.7543 0.0000 0.6565
vn 0.7543 0.0000 0.6565
vn 0.7543 0.0000 0.6565
vn 0.7071 0.0000 -0.7071
vn 0.7071 0.0000 -0.7071
vn 0.7071 0.0000 -0.7071
vn 0.7071 0.0000 -0.7071
vn -0.6565 0.0000 -0.7543
vn -0.6565 0.0000 -0.7543
vn -0.6565 0.0000 -0.7543
vn -0.6565 0.0000 -0.7543
vn 0.9961 0.0000 0.0878
vn 0.9961 0.0000 0.0878
vn 0.9961 0.0000 0.0878
vn 0.9961 0.0000 0.0878
vn 0.1564 0.0000 -0.9877
vn 0.1564 0.0000 -0.9877
vn 0.1564 0.0000 -0.9877
vn 0.1564 0.0000 -0.9877
vn -0.9745 0.0000 -0.2244
vn -0.9745 0.0000 -0.2244
vn -0.9745 0.0000 -0.2244
vn -0.9745 0.0000 -0.2244
vn 0.8575 0.0000 -0.5145
vn 0.8575 0.0000 -0.5145
vn 0.8575 0.0000 -0.5145
vn 0.8575 0.0000 -0.5145
vn -0.4540 0.0000 -0.8910
vn -0.4540 0.0000 -0.8910
vn -0.4540 0.0000 -0.8910
vn -0.4540 0.0000 -0.8910
vn -0.9203 0.0000 0.3913
vn -0.9203 0.0000 0.3913
vn -0.9203 0.0000 0.3913
vn -0.9203 0.0000 0.3913
vn 0.3913 0.0000 -0.9203
vn 0.3913 0.0000 -0.9203
vn 0.3913 0.0000 -0.9203
vn 0.3913 0.0000 -0.9203
vn -0.8910 0.0000 -0.4540
vn -0.8910 0.0000 -0.4540
vn -0.8910 0.0000 -0.4540
vn -0.8910 0.0000 -0.4540
vn -0.5145 0.0000 0.8575
vn -0.5145 0.0000 0.8575
vn -0.5145 0.0000 0.8575
vn -0.5145 0.0000 0.8575
vn -0.2244 0.0000 -0.9745
vn -0.2244 0.0000 -0.9745
vn -0.2244 0.0000 -0.9745
vn -0.2244 0.0000 -0.9745
vn -0.9877 0.0000 0.1564
vn -0.9877 0.0000 0.1564
vn -0.9877 0.0000 0.1564
vn -0.9877 0.0000 0.1564
vn 0.0878 0.0000 0.9961
vn 0.0878 0.0000 0.9961
vn 0.0878 0.0000 0.9961
vn 0.0878 0.0000 0.9961
vn -0.7543 0.0000 -0.6565
vn -0.7543 0.0000 -0.6565
vn -0.7543 0.0000 -0.6565
vn -0.7543 0.0000 -0.6565
vn -0.7071 0.0000 0.7071
vn -0.7071 0.0000 0.7071
vn -0.7071 0.0000 0.7071
vn -0.7071 0.0000 0.7071
vn 0.6565 0.0000 0.7543
vn 0.6565 0.0000 0.7543
vn 0.6565 0.0000 0.7543
vn 0.6565 0.0000 0.7543
vn -0.8575 0.0000 0.5145
vn -0.9101 0.0000 0.4144
vn -0.9101 0.0000 0.4144
vn -0.8575 0.0000 0.5145
vn 0.4540 0.0000 0.8910
vn 0.4540 0.0000 0.8910
vn 0.4540 0.0000 0.8910
vn 0.4540 0.0000 0.8910
vn 0.9203 0.0000 -0.3913
vn 0.9203 0.0000 -0.3913
vn 0.9203 0.0000 -0.3913
vn 0.9203 0.0000 -0.3913
vn -0.3913 0.0000 0.9203
vn -0.3913 0.0000 0.9203
vn -0.3913 0.0000 0.9203
vn -0.3913 0.0000 0.9203
vn 0.8910 0.0000 0.4540
vn 0.8910 0.0000 0.4540
vn 0.8910 0.0000 0.4540
vn 0.8910 0.0000 0.4540
vn 0.5145 0.0000 -0.8575
vn 0.5145 0.0000 -0.8575
vn 0.5145 0.0000 -0.8575
vn 0.5145 0.0000 -0.8575
vn -1.0000 0.0000 0.0000
vn -0.9511 0.0000 0.3090
vn -0.9511 0.0000 0.3090
vn -1.0000 0.0000 0.0000
vn 0.8910 0.0000 -0.4540
vn 0.8910 0.0000 -0.4540
vn 0.8910 0.0000 -0.4540
vn 0.8910 0.0000 -0.4540
vn -0.9511 0.0000 0.3090
vn -0.8090 0.0000 0.5878
vn -0.8090 0.0000 0.5878
vn -0.9511 0.0000 0.3090
vn -0.8090 0.0000 0.5878
vn -0.5878 0.0000 0.8090
vn -0.5878 0.0000 0.8090
vn -0.8090 0.0000 0.5878
vn 0.4540 0.0000 -0.8910
vn 0.4540 0.0000 -0.8910
vn 0.4540 0.0000 -0.8910
vn 0.4540 0.0000 -0.8910
vn -0.5878 0.0000 0.8090
vn -0.3090 0.0000 0.9511
vn -0.3090 0.0000 0.9511
vn -0.5878 0.0000 0.8090
vn -0.3090 0.0000 0.9511
vn 0.0000 0.0000 1.0000
vn 0.0000 0.0000 1.0000
vn -0.3090 0.0000 0.9511
vn -0.1564 0.0000 -0.9877
vn -0.1564 0.0000 -0.9877
vn -0.1564 0.0000 -0.9877
vn -0.1564 0.0000 -0.9877
vn 0.0000 0.0000 1.0000
vn 0.3090 0.0000 0.9511
vn 0.3090 0.0000 0.9511
vn 0.0000 0.0000 1.0000
vn 0.3090 0.0000 0.9511
vn 0.5878 0.0000 0.8090
vn 0.5878 0.0000 0.8090
vn 0.3090 0.0000 0.9511
vn -0.7071 0.0000 -0.7071
vn -0.7071 0.0000 -0.7071
vn -0.7071 0.0000 -0.7071
vn -0.7071 0.0000 -0.7071
vn 0.5878 0.0000 0.8090
vn 0.8090 0.0000 0.5878
vn 0.8090 0.0000 0.5878
vn 0.5878 0.0000 0.8090
vn 0.8090 0.0000 0.5878
vn 0.9511 0.0000 0.3090
vn 0.9511 0.0000 0.3090
vn 0.8090 0.0000 0.5878
vn -0.9877 0.0000 -0.1564
vn -0.9877 0.0000 -0.1564
vn -0.9877 0.0000 -0.1564
vn -0.9877 0.0000 -0.1564
vn 0.9511 0.0000 0.3090
vn 1.0000 0.0000 -0.0000
vn 1.0000 0.0000 -0.0000
vn 0.9511 0.0000 0.3090
vn 1.0000 0.0000 -0.0000
vn 0.9511 0.0000 -0.3090
vn 0.9511 0.0000 -0.3090
vn 1.0000 0.0000 -0.0000
vn -0.8910 0.0000 0.4540
vn -0.8910 0.0000 0.4540
vn -0.8910 0.0000 0.4540
vn -0.8910 0.0000 0.4540
vn 0.9511 0.0000 -0.3090
vn 0.8090 0.0000 -0.5878
vn 0.8090 0.0000 -0.5878
vn 0.9511 0.0000 -0.3090
vn 0.8090 0.0000 -0.5878
vn 0.5878 0.0000 -0.8090
vn 0.5878 0.0000 -0.8090
vn 0.8090 0.0000 -0.5878
vn -0.4540 0.0000 0.8910
vn -0.4540 0.0000 0.8910
vn -0.4540 0.0000 0.8910
vn -0.4540 0.0000 0.8910
vn 0.9511 0.0000 0.3090
vn 0.9511 0.0000 0.3090
vn 0.9511 0.0000 0.3090
vn 0.9511 0.0000 0.3090
vn 0.5878 0.0000 -0.8090
vn 0.4540 0.0000 -0.8910
vn 0.4540 0.0000 -0.8910
vn 0.5878 0.0000 -0.8090
vn -0.4540 0.0000 -0.8910
vn -0.5878 0.0000 -0.8090
vn -0.5878 0.0000 -0.8090
vn -0.4540 0.0000 -0.8910
vn -0.9101 0.0000 0.4144
vn -0.9511 0.0000 0.3090
vn -0.9511 0.0000 0.3090
vn -0.9101 0.0000 0.4144
vn 0.7071 0.0000 0.7071
vn 0.7071 0.0000 0.7071
vn 0.7071 0.0000 0.7071
vn 0.7071 0.0000 0.7071
vn -0.5878 0.0000 -0.8090
vn -0.8090 0.0000 -0.5878
vn -0.8090 0.0000 -0.5878
vn -0.5878 0.0000 -0.8090
vn -0.8090 0.0000 -0.5878
vn -0.9511 0.0000 -0.3090
vn -0.9511 0.0000 -0.3090
vn -0.8090 0.0000 -0.5878
vn 0.9877 0.0000 0.1564
vn 0.9877 0.0000 0.1564
vn 0.9877 0.0000 0.1564
vn 0.9877 0.0000 0.1564
vn -0.9511 0.0000 -0.3090
vn -1.0000 0.0000 0.0000
vn -1.0000 0.0000 0.0000
vn -0.9511 0.0000 -0.3090
# 440 vertex normals

vt 0.7500 1.0000 1.0000
vt 0.8000 1.0000 1.0000
vt 0.8500 1.0000 1.0000
vt 0.9000 1.0000 1.0000
vt 0.9500 1.0000 1.0000
vt 0.0000 1.0000 1.0000
vt 0.0500 1.0000 1.0000
vt 0.1000 1.0000 1.0000
vt 0.1500 1.0000 1.0000
vt 0.2000 1.0000 1.0000
vt 0.2500 1.0000 1.0000
vt 0.3000 1.0000 1.0000
vt 0.3500 1.0000 1.0000
vt 0.4000 1.0000 1.0000
vt 0.5500 1.0000 1.0000
vt 0.6000 1.0000 1.0000
vt 0.6500 1.0000 1.0000
vt 0.7000 1.0000 1.0000
vt -0.0500 1.0000 1.0000
vt 0.9560 1.0000 0.9021
vt 0.9173 1.0000 0.7159
vt 0.8377 1.0000 0.4596
vt 0.7252 1.0000 0.1584
vt 0.5905 1.0000 -0.1584
vt 0.4470 1.0000 -0.4596
vt 0.3087 1.0000 -0.7159
vt 0.1892 1.0000 -0.9021
vt 0.1000 1.0000 -1.0000
vt 0.0500 1.0000 -1.0000
vt 0.0827 1.0000 -0.7159
vt 0.1623 1.0000 -0.4596
vt 0.2748 1.0000 -0.1584
vt 0.8000 1.0000 1.0000
vt 0.7500 1.0000 1.0000
vt 0.9000 1.0000 1.0000
vt 0.8500 1.0000 1.0000
vt 0.0000 1.0000 1.0000
vt -0.0500 1.0000 1.0000
vt 0.1000 1.0000 1.0000
vt 0.0500 1.0000 1.0000
vt 0.2000 1.0000 1.0000
vt 0.1500 1.0000 1.0000
vt 0.3000 1.0000 1.0000
vt 0.2500 1.0000 1.0000
vt 0.4000 1.0000 1.0000
vt 0.3500 1.0000 1.0000
vt 0.6000 1.0000 1.0000
vt 0.5500 1.0000 1.0000
vt 0.7000 1.0000 1.0000
vt 0.6500 1.0000 1.0000
vt 0.7500 1.0000 1.0000
vt 0.8000 1.0000 1.0000
vt 0.8500 1.0000 1.0000
vt 0.9000 1.0000 1.0000
vt 0.9500 1.0000 1.0000
vt 0.9560 1.0000 0.9021
vt 0.9173 1.0000 0.7159
vt 0.8377 1.0000 0.4596
vt 0.7252 1.0000 0.1584
vt 0.5905 1.0000 -0.1584
vt 0.4470 1.0000 -0.4596
vt 0.3087 1.0000 -0.7159
vt 0.1892 1.0000 -0.9021
vt 0.1000 1.0000 -1.0000
vt 0.0500 1.0000 -1.0000
vt 0.0827 1.0000 -0.7159
vt 0.1623 1.0000 -0.4596
vt 0.2748 1.0000 -0.1584
vt 0.7000 1.0000 1.0000
# 69 texture coords

g kolo
usemtl wire_115115115
s off
f -111/-68/-440 -112/-69/-439 -92/-36/-438 -93/-37/-437 
f -109/-66/-436 -110/-67/-435 -90/-34/-434 -91/-35/-433 
f -107/-64/-432 -108/-51/-431 -88/-32/-430 -89/-33/-429 
f -105/-62/-428 -106/-63/-427 -86/-30/-426 -87/-31/-425 
f -103/-60/-424 -104/-61/-423 -84/-28/-422 -85/-29/-421 
f -101/-58/-420 -102/-59/-419 -82/-26/-418 -83/-27/-417 
f -99/-56/-416 -100/-57/-415 -80/-24/-414 -81/-25/-413 
f -96/-54/-412 -97/-55/-411 -78/-22/-410 -79/-23/-409 
f -94/-52/-408 -95/-53/-407 -76/-20/-406 -77/-21/-405 
f -112/-69/-404 -111/-68/-403 -74/-18/-402 -75/-19/-401 
f -111/-68/-400 -110/-67/-399 -73/-17/-398 -74/-18/-397 
f -110/-67/-396 -109/-66/-395 -72/-16/-394 -73/-17/-393 
f -109/-66/-392 -108/-65/-391 -71/-15/-390 -72/-16/-389 
f -108/-65/-388 -107/-50/-387 -70/-14/-386 -71/-15/-385 
f -107/-50/-384 -106/-49/-383 -69/-13/-382 -70/-14/-381 
f -106/-49/-380 -105/-48/-379 -68/-12/-378 -69/-13/-377 
f -105/-48/-376 -104/-47/-375 -67/-11/-374 -68/-12/-373 
f -104/-47/-372 -103/-46/-371 -66/-10/-370 -67/-11/-369 
f -103/-46/-368 -102/-45/-367 -65/-9/-366 -66/-10/-365 
f -102/-45/-364 -101/-44/-363 -64/-8/-362 -65/-9/-361 
f -101/-44/-360 -100/-43/-359 -63/-7/-358 -64/-8/-357 
f -100/-43/-356 -99/-42/-355 -62/-6/-354 -63/-7/-353 
f -99/-42/-352 -98/-41/-351 -61/-5/-350 -62/-6/-349 
f -97/-40/-348 -96/-39/-347 -59/-3/-346 -60/-4/-345 
f -96/-39/-344 -95/-38/-343 -58/-2/-342 -59/-3/-341 
f -95/-38/-340 -94/-52/-339 -57/-1/-338 -58/-2/-337 
f -94/-52/-336 -112/-69/-335 -75/-19/-334 -57/-1/-333 
f -36/-36/-332 -56/-69/-331 -55/-68/-330 -37/-37/-329 
f -34/-34/-328 -54/-67/-327 -53/-66/-326 -35/-35/-325 
f -32/-32/-324 -52/-51/-323 -51/-64/-322 -33/-33/-321 
f -30/-30/-320 -50/-63/-319 -49/-62/-318 -31/-31/-317 
f -28/-28/-316 -48/-61/-315 -47/-60/-314 -29/-29/-313 
f -26/-26/-312 -46/-59/-311 -45/-58/-310 -27/-27/-309 
f -24/-24/-308 -44/-57/-307 -43/-56/-306 -25/-25/-305 
f -22/-22/-304 -41/-55/-303 -40/-54/-302 -23/-23/-301 
f -20/-20/-300 -39/-53/-299 -38/-52/-298 -21/-21/-297 
f -18/-18/-296 -55/-68/-295 -56/-69/-294 -19/-19/-293 
f -17/-17/-292 -54/-67/-291 -55/-68/-290 -18/-18/-289 
f -16/-16/-288 -53/-66/-287 -54/-67/-286 -17/-17/-285 
f -15/-15/-284 -52/-65/-283 -53/-66/-282 -16/-16/-281 
f -14/-14/-280 -51/-50/-279 -52/-65/-278 -15/-15/-277 
f -13/-13/-276 -50/-49/-275 -51/-50/-274 -14/-14/-273 
f -12/-12/-272 -49/-48/-271 -50/-49/-270 -13/-13/-269 
f -11/-11/-268 -48/-47/-267 -49/-48/-266 -12/-12/-265 
f -10/-10/-264 -47/-46/-263 -48/-47/-262 -11/-11/-261 
f -9/-9/-260 -46/-45/-259 -47/-46/-258 -10/-10/-257 
f -8/-8/-256 -45/-44/-255 -46/-45/-254 -9/-9/-253 
f -7/-7/-252 -44/-43/-251 -45/-44/-250 -8/-8/-249 
f -6/-6/-248 -43/-42/-247 -44/-43/-246 -7/-7/-245 
f -5/-5/-244 -42/-41/-243 -43/-42/-242 -6/-6/-241 
f -3/-3/-240 -40/-39/-239 -41/-40/-238 -4/-4/-237 
f -2/-2/-236 -39/-38/-235 -40/-39/-234 -3/-3/-233 
f -1/-1/-232 -38/-52/-231 -39/-38/-230 -2/-2/-229 
f -19/-19/-228 -56/-69/-227 -38/-52/-226 -1/-1/-225 
s 1
f -92/-36/-224 -112/-69/-223 -56/-69/-222 -36/-36/-221 
s 2
f -93/-37/-220 -92/-36/-219 -36/-36/-218 -37/-37/-217 
s 1
f -111/-68/-216 -93/-37/-215 -37/-37/-214 -55/-68/-213 
f -90/-34/-212 -110/-67/-211 -54/-67/-210 -34/-34/-209 
s 2
f -91/-35/-208 -90/-34/-207 -34/-34/-206 -35/-35/-205 
s 1
f -109/-66/-204 -91/-35/-203 -35/-35/-202 -53/-66/-201 
f -88/-32/-200 -108/-51/-199 -52/-51/-198 -32/-32/-197 
s 2
f -89/-33/-196 -88/-32/-195 -32/-32/-194 -33/-33/-193 
s 1
f -107/-64/-192 -89/-33/-191 -33/-33/-190 -51/-64/-189 
f -86/-30/-188 -106/-63/-187 -50/-63/-186 -30/-30/-185 
s 2
f -87/-31/-184 -86/-30/-183 -30/-30/-182 -31/-31/-181 
s 1
f -105/-62/-180 -87/-31/-179 -31/-31/-178 -49/-62/-177 
f -84/-28/-176 -104/-61/-175 -48/-61/-174 -28/-28/-173 
s 2
f -85/-29/-172 -84/-28/-171 -28/-28/-170 -29/-29/-169 
s 1
f -103/-60/-168 -85/-29/-167 -29/-29/-166 -47/-60/-165 
f -82/-26/-164 -102/-59/-163 -46/-59/-162 -26/-26/-161 
s 2
f -83/-27/-160 -82/-26/-159 -26/-26/-158 -27/-27/-157 
s 1
f -101/-58/-156 -83/-27/-155 -27/-27/-154 -45/-58/-153 
f -80/-24/-152 -100/-57/-151 -44/-57/-150 -24/-24/-149 
s 2
f -81/-25/-148 -80/-24/-147 -24/-24/-146 -25/-25/-145 
s 1
f -99/-56/-144 -81/-25/-143 -25/-25/-142 -43/-56/-141 
f -78/-22/-140 -97/-55/-139 -41/-55/-138 -22/-22/-137 
s 2
f -79/-23/-136 -78/-22/-135 -22/-22/-134 -23/-23/-133 
s 1
f -96/-54/-132 -79/-23/-131 -23/-23/-130 -40/-54/-129 
f -76/-20/-128 -95/-53/-127 -39/-53/-126 -20/-20/-125 
s 2
f -77/-21/-124 -76/-20/-123 -20/-20/-122 -21/-21/-121 
s 1
f -94/-52/-120 -77/-21/-119 -21/-21/-118 -38/-52/-117 
s 2
f -75/-19/-116 -74/-18/-115 -18/-18/-114 -19/-19/-113 
f -110/-67/-112 -111/-68/-111 -55/-68/-110 -54/-67/-109 
f -74/-18/-108 -73/-17/-107 -17/-17/-106 -18/-18/-105 
f -73/-17/-104 -72/-16/-103 -16/-16/-102 -17/-17/-101 
f -108/-65/-100 -109/-66/-99 -53/-66/-98 -52/-65/-97 
f -72/-16/-96 -71/-15/-95 -15/-15/-94 -16/-16/-93 
f -71/-15/-92 -70/-14/-91 -14/-14/-90 -15/-15/-89 
f -106/-49/-88 -107/-50/-87 -51/-50/-86 -50/-49/-85 
f -70/-14/-84 -69/-13/-83 -13/-13/-82 -14/-14/-81 
f -69/-13/-80 -68/-12/-79 -12/-12/-78 -13/-13/-77 
f -104/-47/-76 -105/-48/-75 -49/-48/-74 -48/-47/-73 
f -68/-12/-72 -67/-11/-71 -11/-11/-70 -12/-12/-69 
f -67/-11/-68 -66/-10/-67 -10/-10/-66 -11/-11/-65 
f -102/-45/-64 -103/-46/-63 -47/-46/-62 -46/-45/-61 
f -66/-10/-60 -65/-9/-59 -9/-9/-58 -10/-10/-57 
f -65/-9/-56 -64/-8/-55 -8/-8/-54 -9/-9/-53 
f -100/-43/-52 -101/-44/-51 -45/-44/-50 -44/-43/-49 
f -64/-8/-48 -63/-7/-47 -7/-7/-46 -8/-8/-45 
f -63/-7/-44 -62/-6/-43 -6/-6/-42 -7/-7/-41 
f -98/-41/-40 -99/-42/-39 -43/-42/-38 -42/-41/-37 
s 1
f -61/-5/-36 -98/-41/-35 -42/-41/-34 -5/-5/-33 
s 2
f -62/-6/-32 -61/-5/-31 -5/-5/-30 -6/-6/-29 
f -60/-4/-28 -59/-3/-27 -3/-3/-26 -4/-4/-25 
s 1
f -97/-40/-24 -60/-4/-23 -4/-4/-22 -41/-40/-21 
s 2
f -95/-38/-20 -96/-39/-19 -40/-39/-18 -39/-38/-17 
f -59/-3/-16 -58/-2/-15 -2/-2/-14 -3/-3/-13 
f -58/-2/-12 -57/-1/-11 -1/-1/-10 -2/-2/-9 
f -112/-69/-8 -94/-52/-7 -38/-52/-6 -56/-69/-5 
f -57/-1/-4 -75/-19/-3 -19/-19/-2 -1/-1/-1 
# 110 polygons

