# 3ds Max Wavefront OBJ Exporter v0.97b - (c)2007 guruware
# File Created: 05.06.2017 10:25:36

#
# object indicator_light
#

v  -0.9843 -0.9843 -0.0000
v  0.9843 -0.9843 -0.0000
v  -0.9843 0.9843 -0.0000
v  0.9843 0.9843 -0.0000
v  0.9843 0.0000 -0.0000
v  -0.9843 0.0000 -0.0000
v  0.0000 0.9843 -0.0000
v  0.0000 -0.9843 -0.0000
v  0.8785 0.0000 -0.0000
v  0.0000 0.8785 -0.0000
v  -0.8785 0.0000 -0.0000
v  0.0000 -0.8785 -0.0000
v  0.6358 0.6358 -0.0000
v  -0.6358 0.6358 -0.0000
v  -0.6358 -0.6358 -0.0000
v  0.6358 -0.6358 -0.0000
v  0.4393 0.0000 0.1096
v  -0.4393 0.0000 0.1096
v  0.0000 -0.4393 0.1096
v  0.0000 0.4393 0.1096
v  -0.3179 -0.3179 0.1096
v  -0.3179 0.3179 0.1096
v  0.3179 -0.3179 0.1096
v  0.3179 0.3179 0.1096
# 24 vertices

vn 0.0619 -0.0619 0.9962
vn 0.0000 -0.0939 0.9956
vn 0.0000 0.0000 1.0000
vn 0.0000 0.0000 1.0000
vn 0.0619 0.0619 0.9962
vn 0.0939 -0.0000 0.9956
vn 0.0000 0.0000 1.0000
vn 0.0000 0.0000 1.0000
vn -0.0619 -0.0619 0.9962
vn 0.0000 0.0000 1.0000
vn 0.0000 0.0000 1.0000
vn 0.0000 -0.0939 0.9956
vn -0.0619 0.0619 0.9962
vn 0.0000 0.0939 0.9956
vn 0.0000 0.0000 1.0000
vn 0.0000 0.0000 1.0000
vn -0.0619 0.0619 0.9962
vn -0.1064 0.1064 0.9886
vn -0.0000 0.1497 0.9887
vn 0.0000 0.0939 0.9956
vn 0.0619 -0.0619 0.9962
vn 0.1064 -0.1064 0.9886
vn 0.0000 -0.1497 0.9887
vn 0.0000 -0.0939 0.9956
vn -0.0619 0.0619 0.9962
vn -0.0939 -0.0000 0.9956
vn -0.1497 -0.0000 0.9887
vn -0.1064 0.1064 0.9886
vn 0.0619 -0.0619 0.9962
vn 0.0939 -0.0000 0.9956
vn 0.1497 -0.0000 0.9887
vn 0.1064 -0.1064 0.9886
vn 0.1064 0.1064 0.9886
vn -0.0000 0.1497 0.9887
vn -0.1064 0.1064 0.9886
vn 0.1064 -0.1064 0.9886
vn -0.1064 0.1064 0.9886
vn -0.1497 -0.0000 0.9887
vn -0.1064 -0.1064 0.9886
vn 0.1064 -0.1064 0.9886
vn -0.1064 -0.1064 0.9886
vn 0.0000 -0.1497 0.9887
vn 0.1064 -0.1064 0.9886
vn 0.1497 -0.0000 0.9887
vn 0.1064 0.1064 0.9886
vn 0.1064 -0.1064 0.9886
vn 0.0000 0.0000 1.0000
vn 0.0939 -0.0000 0.9956
vn 0.0619 -0.0619 0.9962
vn 0.0000 0.0000 1.0000
vn 0.0000 0.0000 1.0000
vn 0.0000 0.0939 0.9956
vn 0.0619 0.0619 0.9962
vn 0.0000 0.0000 1.0000
vn -0.0619 -0.0619 0.9962
vn -0.0939 -0.0000 0.9956
vn 0.0000 0.0000 1.0000
vn 0.0000 0.0000 1.0000
vn 0.0000 0.0000 1.0000
vn -0.0939 -0.0000 0.9956
vn -0.0619 0.0619 0.9962
vn 0.0000 0.0000 1.0000
vn -0.0619 -0.0619 0.9962
vn 0.0000 -0.0939 0.9956
vn 0.0000 -0.1497 0.9887
vn -0.1064 -0.1064 0.9886
vn 0.0619 0.0619 0.9962
vn 0.0000 0.0939 0.9956
vn -0.0000 0.1497 0.9887
vn 0.1064 0.1064 0.9886
vn -0.0619 -0.0619 0.9962
vn -0.1064 -0.1064 0.9886
vn -0.1497 -0.0000 0.9887
vn -0.0939 -0.0000 0.9956
vn 0.0619 0.0619 0.9962
vn 0.1064 0.1064 0.9886
vn 0.1497 -0.0000 0.9887
vn 0.0939 -0.0000 0.9956
# 78 vertex normals

vt 0.0000 0.0000 0.0000
vt 1.0000 0.0000 0.0000
vt 0.0000 1.0000 0.0000
vt 1.0000 1.0000 0.0000
vt 1.0000 0.5000 0.0000
vt 0.0000 0.5000 0.0000
vt 0.5000 1.0000 0.0000
vt 0.5000 0.0000 0.0000
vt 0.9467 0.5000 0.0000
vt 0.5000 0.9467 0.0000
vt 0.0533 0.5000 0.0000
vt 0.5000 0.0533 0.0000
vt 0.8232 0.8232 0.0000
vt 0.1768 0.8232 0.0000
vt 0.1768 0.1768 0.0000
vt 0.8232 0.1768 0.0000
vt 0.7198 0.5000 0.0000
vt 0.2802 0.5000 0.0000
vt 0.5000 0.2802 0.0000
vt 0.5000 0.7198 0.0000
vt 0.3409 0.3409 0.0000
vt 0.3409 0.6591 0.0000
vt 0.6591 0.3409 0.0000
vt 0.6591 0.6591 0.0000
# 24 texture coords

g indicator_light
s 1
f 16/16/1 12/12/2 8/8/3 2/2/4 
f 13/13/5 9/9/6 5/5/7 4/4/8 
f 15/15/9 1/1/10 8/8/11 12/12/12 
f 14/14/13 10/10/14 7/7/15 3/3/16 
f 14/14/17 22/22/18 20/20/19 10/10/20 
f 16/16/21 23/23/22 19/19/23 12/12/24 
f 14/14/25 11/11/26 18/18/27 22/22/28 
f 16/16/29 9/9/30 17/17/31 23/23/32 
f 24/24/33 20/20/34 22/22/35 23/23/36 
f 22/22/37 18/18/38 21/21/39 23/23/40 
f 21/21/41 19/19/42 23/23/43 
f 17/17/44 24/24/45 23/23/46 
f 5/5/47 9/9/48 16/16/49 2/2/50 
f 7/7/51 10/10/52 13/13/53 4/4/54 
f 15/15/55 11/11/56 6/6/57 1/1/58 
f 6/6/59 11/11/60 14/14/61 3/3/62 
f 15/15/63 12/12/64 19/19/65 21/21/66 
f 13/13/67 10/10/68 20/20/69 24/24/70 
f 15/15/71 21/21/72 18/18/73 11/11/74 
f 13/13/75 24/24/76 17/17/77 9/9/78 
# 18 polygons - 2 triangles

